<svg width="1024" height="1024" viewBox="0 0 1024 1024" fill="none" xmlns="http://www.w3.org/2000/svg">
<g clip-path="url(#clip0_117_184)">
<rect width="1024" height="1024" fill="url(#paint0_linear_117_184)"/>
<path opacity="0.3" fill-rule="evenodd" clip-rule="evenodd" d="M-1.50848 1022.49L63.1163 957.867H-6.87987e-05V953.6H66.1333V701.867H-6.87987e-05V697.6H66.1333V514.134H-6.87987e-05V509.867H66.1333V326.4H-6.87987e-05V322.133H66.1333V70.4002H-6.87987e-05V66.1335H63.1159L-1.50891 1.50866L1.50806 -1.50833L66.1333 63.1169V0.000161111H70.3999V66.1335H322.133V0.000161111H326.4V66.1335H509.867V0.000161111H514.133V66.1335H697.6V0.000161111H701.867V66.1335H953.6V0.000161111H957.867V63.1165L1022.49 -1.50848L1025.51 1.50851L960.884 66.1335H1024V70.4002H957.867V322.133H1024V326.4H957.867V509.867H1024V514.134H957.867V697.6H1024V701.867H957.867V953.6H1024V957.867H960.883L1025.51 1022.49L1022.49 1025.51L957.867 960.884V1024H953.6V957.867H701.867V1024H697.6V957.867H514.133V1024H509.867V957.867H326.4V1024H322.133V957.867H70.3999V1024H66.1333V960.884L1.50851 1025.51L-1.50848 1022.49ZM953.6 950.583V701.867H915.536C893.764 748.06 864.294 789.91 828.78 825.764L953.6 950.583ZM825.763 828.781L950.583 953.6H701.867V915.537C748.06 893.765 789.91 864.294 825.763 828.781ZM825.763 822.747C860.464 787.71 889.339 746.893 910.813 701.867H711.213C710.184 702.947 709.145 704.019 708.098 705.082L825.763 822.747ZM705.081 708.099L822.746 825.764C787.71 860.465 746.892 889.339 701.867 910.814V711.214C702.947 710.184 704.018 709.146 705.081 708.099ZM705.081 702.065C705.146 701.999 705.211 701.933 705.276 701.867H704.883L705.081 702.065ZM701.867 704.884L702.064 705.082C701.998 705.147 701.932 705.211 701.867 705.276V704.884ZM697.6 694.583V552.213C689.929 587.784 672.292 619.649 647.756 644.739L697.6 694.583ZM644.739 647.756L694.583 697.6H552.213C587.784 689.93 619.649 672.292 644.739 647.756ZM644.739 641.722C676.982 608.734 697.029 563.774 697.588 514.134H517.15L644.739 641.722ZM514.133 517.151L641.722 644.739C608.733 676.982 563.773 697.029 514.133 697.588V517.151ZM509.867 506.85V326.412C460.226 326.971 415.266 347.018 382.278 379.261L509.867 506.85ZM379.261 382.278L506.849 509.867H326.412C326.971 460.227 347.018 415.267 379.261 382.278ZM379.261 376.244C404.351 351.708 436.216 334.071 471.788 326.4H329.417L379.261 376.244ZM326.4 329.417L376.244 379.261C351.708 404.351 334.07 436.216 326.4 471.788V329.417ZM322.133 319.117V318.724C322.067 318.789 322.001 318.854 321.935 318.919L322.133 319.117ZM318.918 321.936L319.116 322.133H318.724C318.789 322.068 318.854 322.002 318.918 321.936ZM318.918 315.902C319.982 314.855 321.053 313.816 322.133 312.787V113.187C277.108 134.661 236.29 163.536 201.254 198.237L318.918 315.902ZM198.237 201.254L315.901 318.919C314.854 319.982 313.816 321.054 312.787 322.133H113.187C134.661 277.108 163.535 236.29 198.237 201.254ZM198.236 195.22C234.09 159.706 275.94 130.236 322.133 108.464V70.4002H73.4166L198.236 195.22ZM70.3999 73.4175L195.22 198.237C159.706 234.09 130.236 275.94 108.464 322.133H70.3999V73.4175ZM322.133 953.6H73.417L198.237 828.78C234.09 864.294 275.94 893.764 322.133 915.537V953.6ZM70.3999 950.583L195.22 825.763C159.706 789.91 130.236 748.06 108.464 701.867H70.3999V950.583ZM322.133 910.814C277.108 889.339 236.29 860.465 201.254 825.763L318.918 708.099C319.982 709.146 321.053 710.184 322.133 711.214V910.814ZM198.237 822.746L315.901 705.082C314.855 704.018 313.816 702.947 312.787 701.867H113.187C134.661 746.892 163.535 787.71 198.237 822.746ZM322.133 705.276L321.936 705.082L322.133 704.884V705.276ZM318.919 702.065L319.116 701.867H318.724L318.919 702.065ZM471.787 697.6H329.417L379.261 647.756C404.351 672.292 436.216 689.93 471.787 697.6ZM326.4 694.583L376.244 644.739C351.708 619.649 334.07 587.784 326.4 552.213V694.583ZM509.867 697.588C460.226 697.029 415.266 676.982 382.278 644.739L509.867 517.15V697.588ZM379.261 641.722L506.85 514.134H326.412C326.971 563.774 347.018 608.734 379.261 641.722ZM697.588 509.867H517.15L644.739 382.278C676.982 415.267 697.029 460.227 697.588 509.867ZM514.133 506.85L641.722 379.261C608.734 347.018 563.774 326.971 514.133 326.412V506.85ZM697.6 471.787C689.929 436.216 672.292 404.351 647.756 379.261L697.6 329.417V471.787ZM644.739 376.244L694.583 326.4H552.212C587.784 334.071 619.649 351.708 644.739 376.244ZM705.276 322.133H704.884L705.081 321.936L705.276 322.133ZM701.867 319.117L702.064 318.919L701.867 318.724V319.117ZM711.213 322.133C710.184 321.053 709.145 319.982 708.098 318.919L825.763 201.254C860.465 236.29 889.339 277.108 910.813 322.133H711.213ZM705.081 315.902L822.746 198.237C787.71 163.536 746.892 134.661 701.867 113.187V312.787C702.947 313.816 704.018 314.855 705.081 315.902ZM915.536 322.133C893.764 275.94 864.294 234.09 828.78 198.237L953.6 73.4172V322.133H915.536ZM825.763 195.22L950.583 70.4002H701.867V108.464C748.06 130.236 789.91 159.706 825.763 195.22ZM106.48 697.6H70.3999V573.932C76.4519 617.483 88.7943 659.021 106.48 697.6ZM308.804 697.6H111.18C85.2885 641.78 70.7148 579.642 70.405 514.134H236.808C237.345 584.813 264.526 649.151 308.804 697.6ZM322.133 697.6H314.622C269.464 649.595 241.622 585.113 241.075 514.134H322.133V697.6ZM326.4 701.867V709.378C374.406 754.536 438.887 782.378 509.867 782.925V701.867H326.4ZM514.133 701.867V782.925C585.113 782.378 649.594 754.536 697.6 709.378V701.867H514.133ZM709.378 697.6H701.867V514.134H782.925C782.378 585.113 754.536 649.595 709.378 697.6ZM912.82 697.6H715.196C759.474 649.151 786.655 584.813 787.192 514.134H953.595C953.285 579.642 938.711 641.78 912.82 697.6ZM953.6 697.6H917.52C935.205 659.022 947.548 617.483 953.6 573.933V697.6ZM241.075 509.867H322.133V326.4H314.622C269.464 374.406 241.622 438.887 241.075 509.867ZM701.867 509.867H782.925C782.378 438.887 754.536 374.406 709.378 326.4H701.867V509.867ZM787.192 509.867H953.595C953.285 444.358 938.711 382.221 912.82 326.4H715.196C759.474 374.849 786.655 439.187 787.192 509.867ZM70.405 509.867H236.808C237.345 439.187 264.526 374.849 308.804 326.4H111.18C85.2885 382.221 70.7148 444.358 70.405 509.867ZM917.52 326.4H953.6V450.067C947.548 406.517 935.205 364.979 917.52 326.4ZM697.6 322.133V314.622C649.594 269.464 585.113 241.622 514.133 241.075V322.133H697.6ZM509.867 322.133V241.075C438.887 241.622 374.406 269.464 326.4 314.623V322.133H509.867ZM70.3999 326.4H106.48C88.7943 364.979 76.4519 406.517 70.3999 450.068V326.4ZM326.4 106.48V70.4002H450.068C406.517 76.4521 364.979 88.7946 326.4 106.48ZM697.6 106.48C659.021 88.7945 617.483 76.4521 573.932 70.4002H697.6V106.48ZM326.4 953.6H450.067C406.517 947.548 364.979 935.206 326.4 917.52V953.6ZM573.933 953.6H697.6V917.52C659.021 935.206 617.483 947.548 573.933 953.6ZM326.4 912.82V715.196C374.849 759.474 439.187 786.655 509.867 787.192V953.595C444.358 953.285 382.22 938.712 326.4 912.82ZM326.4 111.18V308.804C374.849 264.526 439.187 237.345 509.867 236.808V70.4052C444.358 70.715 382.22 85.2887 326.4 111.18ZM514.133 953.595C579.642 953.285 641.779 938.712 697.6 912.82V715.196C649.151 759.474 584.813 786.655 514.133 787.192V953.595ZM514.133 236.808C584.813 237.345 649.151 264.526 697.6 308.804V111.18C641.779 85.2887 579.642 70.7151 514.133 70.4052V236.808Z" fill="white"/>
<path d="M370.605 76.8H653.395C748.195 76.8 789.69 77.1015 834.269 91.0673C880.017 107.928 916.071 143.982 932.932 189.73C946.898 234.301 947.2 275.81 947.2 370.605V653.395C947.2 748.196 946.898 789.691 932.932 834.27C916.071 880.019 880.015 916.073 834.269 932.925C789.691 946.898 748.199 947.2 653.395 947.2H370.605C275.8 947.2 234.301 946.898 189.732 932.925C143.985 916.073 107.929 880.019 91.0673 834.269C77.1016 789.69 76.8001 748.195 76.8001 653.395V370.605C76.8001 275.811 77.1017 234.302 91.0671 189.732C107.928 143.983 143.983 107.928 189.732 91.067C234.302 77.1017 275.803 76.8 370.605 76.8Z" stroke="white" stroke-width="17.0667"/>
<path d="M507.88 288.675C542.626 288.675 571.294 260.587 571.294 224.97C571.294 190.222 542.626 162.133 507.88 162.133C472.84 162.133 444.753 190.222 444.753 224.97C444.753 260.587 472.84 288.675 507.88 288.675ZM444.463 505.274H571.875V436.066C571.875 431.143 579.691 428.826 582.588 434.907L663.378 599.092C670.616 613.571 687.992 619.653 702.471 612.124C716.368 605.174 722.45 587.51 715.209 573.031L608.94 357.882C596.198 332.4 572.453 317.342 542.626 317.342H473.419C443.595 317.342 419.85 332.4 407.109 357.882L300.837 573.031C293.598 587.51 299.679 605.174 313.578 612.124C328.056 619.653 345.141 613.571 352.38 599.092L433.749 434.907C436.645 428.826 444.463 430.564 444.463 435.776V505.274ZM390.603 862.312C404.503 865.206 420.429 857.968 424.772 838.276L451.992 713.762L507.88 610.677L564.056 713.762L591.276 838.276C595.617 858.837 612.993 865.787 627.181 862.021C640.792 858.259 651.796 845.226 647.451 825.535L619.943 697.258C619.653 694.651 619.362 692.914 618.206 690.307L584.035 593.301H432.301L397.553 690.307C396.684 692.914 396.395 694.651 395.816 697.258L368.306 825.535C363.963 846.095 376.414 859.415 390.603 862.312ZM221.495 646.583H238.29C249.873 646.583 257.691 638.476 257.691 626.891V471.393C257.691 459.811 249.873 451.992 238.29 451.992H221.495C209.912 451.992 202.094 459.811 202.094 471.393V626.891C202.094 638.476 209.912 646.583 221.495 646.583ZM777.178 646.583H794.264C805.846 646.583 813.374 638.476 813.374 626.891V471.393C813.374 459.811 805.846 451.992 794.264 451.992H777.178C765.596 451.992 757.777 459.811 757.777 471.393V626.891C757.777 638.476 765.596 646.583 777.178 646.583ZM178.349 565.215H837.407C846.386 565.215 853.333 558.265 853.333 549.286C853.333 540.31 846.386 533.072 837.407 533.072H178.349C169.083 533.072 162.133 540.31 162.133 549.286C162.133 558.265 169.083 565.215 178.349 565.215Z" fill="white"/>
</g>
<defs>
<linearGradient id="paint0_linear_117_184" x1="512" y1="0" x2="512" y2="1024" gradientUnits="userSpaceOnUse">
<stop stop-color="#57B8EA"/>
<stop offset="1" stop-color="#2765D9"/>
</linearGradient>
<clipPath id="clip0_117_184">
<rect width="1024" height="1024" fill="white"/>
</clipPath>
</defs>
</svg>
