<?xml version="1.0" encoding="UTF-8"?>
<!--Generator: Apple Native CoreSVG 232.5-->
<!DOCTYPE svg
PUBLIC "-//W3C//DTD SVG 1.1//EN"
       "http://www.w3.org/Graphics/SVG/1.1/DTD/svg11.dtd">
<svg version="1.1" xmlns="http://www.w3.org/2000/svg" xmlns:xlink="http://www.w3.org/1999/xlink" width="50.5273" height="50.5273">
 <g>
  <rect height="50.5273" opacity="0" width="50.5273" x="0" y="0"/>
  <path d="M39.375 34.1992C25.2734 34.1992 16.5234 25.7227 16.5234 12.0703C16.5234 8.26172 17.1484 4.94141 18.125 2.96875C18.4375 2.30469 18.5156 1.97266 18.5156 1.54297C18.5156 0.820312 17.8516 0 16.9336 0C16.7383 0 16.2891 0.0585938 15.6641 0.292969C6.46484 3.98438 0 13.7305 0 24.2188C0 39.375 11.0156 50.4297 26.1719 50.4297C36.8945 50.4297 45.8398 44.668 49.8633 35.4492C50.1172 34.8633 50.1562 34.3945 50.1562 34.1602C50.1562 33.2227 49.4141 32.6172 48.7109 32.6172C48.3398 32.6172 48.0664 32.6562 47.5586 32.8516C45.625 33.6523 42.4023 34.1992 39.375 34.1992ZM3.37891 24.082C3.37891 15.9375 7.75391 8.20312 14.6289 4.17969C13.7695 6.60156 13.3008 9.41406 13.3008 12.3438C13.3008 27.9883 22.9297 37.3633 38.9258 37.3633C41.582 37.3633 43.9453 37.0312 46.0352 36.3086C42.1289 42.9688 34.5898 47.0508 26.3086 47.0508C13.0469 47.0508 3.37891 37.3828 3.37891 24.082Z"
        fill="#000" fill-opacity="0.85"/>
 </g>
</svg>
