<?xml version="1.0" encoding="UTF-8"?>
<!--Generator: Apple Native CoreSVG 232.5-->
<!DOCTYPE svg
PUBLIC "-//W3C//DTD SVG 1.1//EN"
       "http://www.w3.org/Graphics/SVG/1.1/DTD/svg11.dtd">
<svg version="1.1" xmlns="http://www.w3.org/2000/svg" xmlns:xlink="http://www.w3.org/1999/xlink" width="54.6094" height="54.3945">
 <g>
  <rect height="54.3945" opacity="0" width="54.6094" x="0" y="0"/>
  <path d="M27.1094 9.39453C28.1445 9.39453 28.9648 8.55469 28.9648 7.53906L28.9648 1.85547C28.9648 0.839844 28.1445 0 27.1094 0C26.0938 0 25.2734 0.839844 25.2734 1.85547L25.2734 7.53906C25.2734 8.55469 26.0938 9.39453 27.1094 9.39453ZM39.668 14.6289C40.3906 15.332 41.5625 15.3516 42.3047 14.6289L46.3281 10.6055C47.0312 9.88281 47.0312 8.69141 46.3281 7.96875C45.6055 7.26562 44.4336 7.26562 43.7109 7.96875L39.668 12.0117C38.9648 12.7344 38.9648 13.9062 39.668 14.6289ZM44.8633 27.1875C44.8633 28.2031 45.7031 29.0234 46.7188 29.0234L52.3828 29.0234C53.3984 29.0234 54.2383 28.2031 54.2383 27.1875C54.2383 26.1719 53.3984 25.332 52.3828 25.332L46.7188 25.332C45.7031 25.332 44.8633 26.1719 44.8633 27.1875ZM39.668 39.7461C38.9648 40.4688 38.9648 41.6406 39.668 42.3633L43.7109 46.4062C44.4336 47.1094 45.6055 47.0898 46.3281 46.3867C47.0312 45.6641 47.0312 44.5117 46.3281 43.7891L42.2852 39.7461C41.5625 39.043 40.3906 39.043 39.668 39.7461ZM27.1094 44.9805C26.0938 44.9805 25.2734 45.8008 25.2734 46.8164L25.2734 52.5C25.2734 53.5352 26.0938 54.3555 27.1094 54.3555C28.1445 54.3555 28.9648 53.5352 28.9648 52.5L28.9648 46.8164C28.9648 45.8008 28.1445 44.9805 27.1094 44.9805ZM14.5703 39.7461C13.8477 39.043 12.6562 39.043 11.9336 39.7461L7.91016 43.7695C7.20703 44.4922 7.20703 45.6445 7.89062 46.3672C8.61328 47.0703 9.78516 47.0898 10.5078 46.3867L14.5508 42.3633C15.2539 41.6406 15.2539 40.4688 14.5703 39.7461ZM9.35547 27.1875C9.35547 26.1719 8.53516 25.332 7.51953 25.332L1.85547 25.332C0.839844 25.332 0 26.1719 0 27.1875C0 28.2031 0.839844 29.0234 1.85547 29.0234L7.51953 29.0234C8.53516 29.0234 9.35547 28.2031 9.35547 27.1875ZM14.5508 14.6289C15.2539 13.9258 15.2539 12.7148 14.5703 12.0117L10.5273 7.96875C9.82422 7.28516 8.65234 7.26562 7.92969 7.96875C7.22656 8.69141 7.22656 9.88281 7.91016 10.5859L11.9336 14.6289C12.6562 15.332 13.8281 15.332 14.5508 14.6289Z"
        fill="#FAEBD7" fill-opacity="0.85"/>
  <path d="M27.0898 39.7656C33.9648 39.7656 39.668 34.0625 39.668 27.1875C39.668 20.293 33.9648 14.5898 27.0898 14.5898C20.2148 14.5898 14.5312 20.293 14.5312 27.1875C14.5312 34.0625 20.2148 39.7656 27.0898 39.7656ZM27.0898 36.4648C22.0117 36.4648 17.8125 32.2656 17.8125 27.1875C17.8125 22.1094 22.0117 17.8906 27.0898 17.8906C32.168 17.8906 36.3867 22.1094 36.3867 27.1875C36.3867 32.2656 32.168 36.4648 27.0898 36.4648Z"
        fill="#FAEBD7" fill-opacity="0.85"/>
 </g>
</svg>
