<svg width="120" height="120" viewBox="0 0 120 120" fill="none" xmlns="http://www.w3.org/2000/svg">
<g clip-path="url(#clip0_208_176)">
<rect width="120" height="120" fill="url(#paint0_linear_208_176)"/>
<path opacity="0.3" fill-rule="evenodd" clip-rule="evenodd" d="M-0.176788 119.823L7.39644 112.25H-1.16378e-05V111.75H7.74999V82.25H-1.16378e-05V81.75H7.74999V60.25H-1.16378e-05V59.75H7.74999V38.25H-1.16378e-05V37.75H7.74999V8.25002H-1.16378e-05V7.75002H7.39644L-0.176788 0.176796L0.176758 -0.176758L7.74999 7.39647V1.88798e-05H8.24999V7.75002H37.75V1.88798e-05H38.25V7.75002H59.75V1.88798e-05H60.25V7.75002H81.75V1.88798e-05H82.25V7.75002H111.75V1.88798e-05H112.25V7.39647L119.823 -0.176758L120.177 0.176796L112.604 7.75002H120V8.25002H112.25V37.75H120V38.25H112.25V59.75H120V60.25H112.25V81.75H120V82.25H112.25V111.75H120V112.25H112.604L120.177 119.823L119.823 120.177L112.25 112.604V120H111.75V112.25H82.25V120H81.75V112.25H60.25V120H59.75V112.25H38.25V120H37.75V112.25H8.24999V120H7.74999V112.604L0.176765 120.177L-0.176788 119.823ZM111.75 111.396V82.25H107.289C104.738 87.6633 101.284 92.5676 97.1227 96.7692L111.75 111.396ZM96.7691 97.1227L111.396 111.75H82.25V107.289C87.6632 104.738 92.5676 101.284 96.7691 97.1227ZM96.7691 96.4156C100.836 92.3098 104.219 87.5265 106.736 82.25H83.3453C83.2246 82.3766 83.103 82.5022 82.9803 82.6268L96.7691 96.4156ZM82.6267 82.9803L96.4156 96.7691C92.3097 100.836 87.5264 104.219 82.25 106.736V83.3453C82.3765 83.2247 82.5021 83.103 82.6267 82.9803ZM82.6267 82.2732C82.6343 82.2655 82.6419 82.2577 82.6495 82.25H82.6035L82.6267 82.2732ZM82.25 82.6036L82.2732 82.6267C82.2654 82.6343 82.2577 82.6419 82.25 82.6495V82.6036ZM81.75 81.3965V64.7124C80.8511 68.881 78.7842 72.6151 75.9089 75.5554L81.75 81.3965ZM75.5554 75.9089L81.3964 81.75H64.7124C68.8809 80.8511 72.6151 78.7843 75.5554 75.9089ZM75.5553 75.2018C79.3338 71.336 81.6831 66.0672 81.7486 60.25H60.6035L75.5553 75.2018ZM60.25 60.6036L75.2018 75.5554C71.336 79.3339 66.0672 81.6831 60.25 81.7486V60.6036ZM59.75 59.3965V38.2514C53.9328 38.3169 48.664 40.6662 44.7982 44.4447L59.75 59.3965ZM44.4446 44.7982L59.3964 59.75H38.2514C38.3169 53.9328 40.6661 48.6641 44.4446 44.7982ZM44.4446 44.0911C47.3849 41.2158 51.1191 39.1489 55.2876 38.25H38.6035L44.4446 44.0911ZM38.25 38.6036L44.0911 44.4447C41.2157 47.3849 39.1489 51.1191 38.25 55.2876V38.6036ZM37.75 37.3965V37.3505C37.7423 37.3581 37.7345 37.3657 37.7268 37.3733L37.75 37.3965ZM37.3733 37.7268L37.3964 37.75H37.3505C37.3581 37.7423 37.3657 37.7346 37.3733 37.7268ZM37.3732 37.0197C37.4978 36.897 37.6234 36.7754 37.75 36.6547V13.2641C32.4735 15.7806 27.6902 19.1643 23.5844 23.2309L37.3732 37.0197ZM23.2309 23.5844L37.0197 37.3733C36.897 37.4979 36.7753 37.6235 36.6547 37.75H13.264C15.7806 32.4736 19.1643 27.6903 23.2309 23.5844ZM23.2309 22.8773C27.4324 18.7156 32.3367 15.262 37.75 12.7106V8.25002H8.60353L23.2309 22.8773ZM8.24999 8.60357L22.8773 23.2309C18.7155 27.4324 15.262 32.3368 12.7106 37.75H8.24999V8.60357ZM37.75 111.75H8.60354L23.2309 97.1227C27.4324 101.284 32.3367 104.738 37.75 107.289V111.75ZM8.24999 111.396L22.8773 96.7691C18.7155 92.5676 15.262 87.6633 12.7106 82.25H8.24999V111.396ZM37.75 106.736C32.4735 104.219 27.6902 100.836 23.5844 96.7691L37.3732 82.9803C37.4978 83.103 37.6234 83.2247 37.75 83.3453V106.736ZM23.2309 96.4156L37.0197 82.6268C36.897 82.5022 36.7753 82.3766 36.6547 82.25H13.264C15.7806 87.5265 19.1643 92.3098 23.2309 96.4156ZM37.75 82.6495L37.7268 82.6267L37.75 82.6036V82.6495ZM37.3733 82.2732L37.3964 82.25H37.3505L37.3733 82.2732ZM55.2876 81.75H38.6035L44.4446 75.9089C47.3849 78.7843 51.119 80.8511 55.2876 81.75ZM38.25 81.3965L44.0911 75.5554C41.2157 72.6151 39.1489 68.881 38.25 64.7124V81.3965ZM59.75 81.7486C53.9328 81.6831 48.664 79.3339 44.7982 75.5554L59.75 60.6036V81.7486ZM44.4446 75.2018L59.3964 60.25H38.2514C38.3169 66.0672 40.6661 71.336 44.4446 75.2018ZM81.7486 59.75H60.6035L75.5553 44.7982C79.3338 48.6641 81.6831 53.9328 81.7486 59.75ZM60.25 59.3965L75.2018 44.4447C71.336 40.6662 66.0672 38.3169 60.25 38.2514V59.3965ZM81.75 55.2876C80.8511 51.1191 78.7842 47.3849 75.9089 44.4447L81.75 38.6036V55.2876ZM75.5554 44.0911L81.3964 38.25H64.7124C68.8809 39.1489 72.6151 41.2158 75.5554 44.0911ZM82.6495 37.75H82.6035L82.6267 37.7268L82.6495 37.75ZM82.25 37.3965L82.2732 37.3733L82.25 37.3505V37.3965ZM83.3453 37.75C83.2246 37.6235 83.103 37.4979 82.9803 37.3733L96.7691 23.5844C100.836 27.6902 104.219 32.4736 106.736 37.75H83.3453ZM82.6267 37.0197L96.4156 23.2309C92.3098 19.1643 87.5264 15.7806 82.25 13.2641V36.6547C82.3765 36.7754 82.5021 36.897 82.6267 37.0197ZM107.289 37.75C104.738 32.3368 101.284 27.4324 97.1227 23.2309L111.75 8.60357V37.75H107.289ZM96.7691 22.8773L111.396 8.25002H82.25V12.7106C87.6632 15.262 92.5676 18.7156 96.7691 22.8773ZM12.4781 81.75H8.24999V67.2577C8.9592 72.3613 10.4056 77.2291 12.4781 81.75ZM36.1879 81.75H13.0289C9.99474 75.2086 8.28689 67.9268 8.25058 60.25H27.7509C27.8138 68.5328 30.9991 76.0724 36.1879 81.75ZM37.75 81.75H36.8698C31.5778 76.1244 28.3151 68.5679 28.251 60.25H37.75V81.75ZM38.25 82.25V83.1302C43.8756 88.4222 51.4321 91.6849 59.75 91.7491V82.25H38.25ZM60.25 82.25V91.7491C68.5679 91.6849 76.1243 88.4222 81.75 83.1302V82.25H60.25ZM83.1302 81.75H82.25V60.25H91.749C91.6849 68.5679 88.4222 76.1244 83.1302 81.75ZM106.971 81.75H83.812C89.0008 76.0724 92.1862 68.5328 92.249 60.25H111.749C111.713 67.9268 110.005 75.2086 106.971 81.75ZM111.75 81.75H107.522C109.594 77.2291 111.041 72.3613 111.75 67.2577V81.75ZM28.251 59.75H37.75V38.25H36.8698C31.5778 43.8757 28.3151 51.4321 28.251 59.75ZM82.25 59.75H91.749C91.6849 51.4321 88.4222 43.8757 83.1302 38.25H82.25V59.75ZM92.249 59.75H111.749C111.713 52.0732 110.005 44.7915 106.971 38.25H83.812C89.0009 43.9276 92.1861 51.4672 92.249 59.75ZM8.25058 59.75H27.7509C27.8138 51.4672 30.9991 43.9276 36.1879 38.25H13.0289C9.99474 44.7915 8.28689 52.0732 8.25058 59.75ZM107.522 38.25H111.75V52.7424C111.041 47.6388 109.594 42.771 107.522 38.25ZM81.75 37.75V36.8698C76.1243 31.5778 68.5679 28.3151 60.25 28.251V37.75H81.75ZM59.75 37.75V28.251C51.4321 28.3151 43.8756 31.5778 38.25 36.8698V37.75H59.75ZM8.24999 38.25H12.4781C10.4056 42.771 8.9592 47.6388 8.24999 52.7424V38.25ZM38.25 12.4782V8.25002H52.7423C47.6387 8.95923 42.7709 10.4056 38.25 12.4782ZM81.75 12.4782C77.229 10.4056 72.3612 8.95923 67.2576 8.25002H81.75V12.4782ZM38.25 111.75H52.7423C47.6387 111.041 42.7709 109.594 38.25 107.522V111.75ZM67.2576 111.75H81.75V107.522C77.229 109.594 72.3612 111.041 67.2576 111.75ZM38.25 106.971V83.8121C43.9276 89.0009 51.4672 92.1862 59.75 92.2491V111.749C52.0732 111.713 44.7914 110.005 38.25 106.971ZM38.25 13.0289V36.188C43.9276 30.9992 51.4672 27.8139 59.75 27.751V8.25061C52.0732 8.28692 44.7914 9.99477 38.25 13.0289ZM60.25 111.749C67.9268 111.713 75.2085 110.005 81.75 106.971V83.8121C76.0724 89.0009 68.5328 92.1862 60.25 92.2491V111.749ZM60.25 27.751C68.5328 27.8139 76.0724 30.9992 81.75 36.188V13.0289C75.2085 9.99477 67.9268 8.28692 60.25 8.25061V27.751Z" fill="white"/>
<path d="M43.4302 9H76.5697C87.6791 9 92.5419 9.03535 97.7659 10.6719C103.127 12.6478 107.352 16.8731 109.328 22.2342C110.965 27.4573 111 32.3216 111 43.4302V76.5697C111 87.6791 110.965 92.5418 109.328 97.7659C107.352 103.127 103.127 107.352 97.7659 109.327C92.5419 110.965 87.6795 111 76.5697 111H43.4302C32.3203 111 27.4572 110.965 22.2342 109.327C16.8732 107.352 12.6479 103.127 10.6719 97.7658C9.03533 92.5418 9 87.6791 9 76.5697V43.4302C9 32.3216 9.03535 27.4573 10.6719 22.2342C12.6478 16.873 16.873 12.6478 22.2342 10.6719C27.4573 9.03535 32.3207 9 43.4302 9Z" stroke="white" stroke-width="2"/>
</g>
<path d="M89.1436 86.0698C89.1436 93.2861 88.9829 95 85.7693 95H81.2703C78.8601 95 77.896 92.6885 77.896 88.1783" stroke="white" stroke-width="2"/>
<path d="M30.6562 86.0698C30.6562 93.2861 30.8169 95 34.0305 95H38.5295C40.9397 95 41.9038 92.6885 41.9038 88.1783" stroke="white" stroke-width="2"/>
<path d="M67.898 60.9535C67.898 65.326 64.3243 68.8836 59.9 68.8836C55.4756 68.8836 51.9019 65.326 51.9019 60.9535C51.9019 56.5809 55.4756 53.0233 59.9 53.0233C64.3243 53.0233 67.898 56.5809 67.898 60.9535Z" stroke="white" stroke-width="2"/>
<path d="M43.1534 73.2322C43.1534 75.7552 41.0904 77.8135 38.5296 77.8135C35.9687 77.8135 33.9058 75.7552 33.9058 73.2322C33.9058 70.7092 35.9687 68.6509 38.5296 68.6509C41.0904 68.6509 43.1534 70.7092 43.1534 73.2322Z" stroke="white" stroke-width="2"/>
<path d="M36.4047 64.3017C36.4047 65.5918 35.3489 66.6505 34.0304 66.6505C32.712 66.6505 31.6562 65.5918 31.6562 64.3017C31.6562 63.0116 32.712 61.9529 34.0304 61.9529C35.3489 61.9529 36.4047 63.0116 36.4047 64.3017Z" stroke="white" stroke-width="2"/>
<path d="M76.6467 73.2322C76.6467 75.7552 78.7097 77.8135 81.2705 77.8135C83.8313 77.8135 85.8943 75.7552 85.8943 73.2322C85.8943 70.7092 83.8313 68.6509 81.2705 68.6509C78.7097 68.6509 76.6467 70.7092 76.6467 73.2322Z" stroke="white" stroke-width="2"/>
<path d="M83.3951 64.3017C83.3951 65.5918 84.451 66.6505 85.7694 66.6505C87.0878 66.6505 88.1437 65.5918 88.1437 64.3017C88.1437 63.0116 87.0878 61.9529 85.7694 61.9529C84.451 61.9529 83.3951 63.0116 83.3951 64.3017Z" stroke="white" stroke-width="2"/>
<path d="M59.8998 84.3948C50.9018 62.0694 33.9458 55.6328 26.8223 55.2607" stroke="white" stroke-width="2"/>
<path d="M59.9 84.3948C68.898 62.0694 86.0034 55.6328 93.1268 55.2607" stroke="white" stroke-width="2"/>
<path d="M28.1721 43.0376C18.0493 43.0376 23.8868 50.2386 27.2819 49.524" stroke="white" stroke-width="2"/>
<path d="M91.9459 43.0376C102.069 43.0376 95.913 50.2386 92.5179 49.524" stroke="white" stroke-width="2"/>
<path d="M28.4066 85.511C37.4047 89.976 82.6105 89.8651 91.6086 85.4001" stroke="white" stroke-width="2"/>
<path d="M29.6906 81.7164C38.5024 85.4433 81.6159 85.2759 90.4277 81.5489" stroke="white" stroke-width="2"/>
<path d="M91.6182 85.3934C92.0155 85.2692 92.4046 85.1154 92.7641 84.9387C93.1219 84.763 93.4562 84.5618 93.7417 84.3407C94.0197 84.1253 94.2867 83.864 94.4706 83.556C94.6542 83.2486 94.8075 82.7963 94.6503 82.2996C94.4924 81.8003 94.1035 81.5163 93.7714 81.37C93.4407 81.2242 93.0697 81.1664 92.7182 81.1527C92.3571 81.1387 91.968 81.1695 91.5748 81.2347C91.1798 81.3002 90.7739 81.4015 90.3785 81.5317" stroke="white" stroke-width="2"/>
<path d="M28.7735 85.637C28.3504 85.5005 27.9369 85.3372 27.5551 85.1544C27.1751 84.9724 26.8216 84.7687 26.5202 84.5497C26.2277 84.3372 25.9452 84.0822 25.7462 83.7843C25.5535 83.4958 25.3498 83.022 25.5255 82.4851C25.7013 81.9483 26.1467 81.6838 26.4735 81.5628C26.8109 81.4379 27.1905 81.3964 27.553 81.3951C27.9265 81.3938 28.3331 81.4352 28.7484 81.5097C29.1655 81.5845 29.5968 81.6935 30.0199 81.83" stroke="white" stroke-width="2"/>
<line x1="33.7397" y1="46.5585" x2="86.3785" y2="46.5585" stroke="white" stroke-width="2"/>
<line y1="-1" x2="31.4933" y2="-1" transform="matrix(-0.999988 -0.00492436 0.00487894 -0.999988 75.6 29.3628)" stroke="white" stroke-width="2"/>
<line x1="59.2277" y1="47.5584" x2="59.2277" y2="30.4795" stroke="white" stroke-width="2"/>
<path d="M75.5808 30.4795C84.5789 30.4795 86.2098 44.2096 86.2098 47.5585M44.155 30.282C35.1569 30.282 33.7449 44.2081 33.7449 47.5569" stroke="white" stroke-width="2"/>
<path d="M90.2684 31.9307C97.0168 79.9304 92.5179 77.6978 88.019 82.1629" stroke="white" stroke-width="2"/>
<path d="M29.5314 31.9307C22.7828 79.9304 27.2819 77.6978 31.7809 82.1629" stroke="white" stroke-width="2"/>
<path d="M90.2684 31.9302C89.1437 23 70.0228 23 59.8999 23C49.7771 23 30.6562 23 29.5314 31.9302" stroke="white" stroke-width="2"/>
<defs>
<linearGradient id="paint0_linear_208_176" x1="60" y1="0" x2="60" y2="120" gradientUnits="userSpaceOnUse">
<stop stop-color="#57B8EA"/>
<stop offset="1" stop-color="#2765D9"/>
</linearGradient>
<clipPath id="clip0_208_176">
<rect width="120" height="120" fill="white"/>
</clipPath>
</defs>
</svg>
