<?xml version="1.0" encoding="UTF-8"?><svg xmlns="http://www.w3.org/2000/svg" viewBox="0 0 504.87 513.69"><defs><style>.cls-1{fill:#fff;}.cls-1,.cls-2,.cls-3{stroke-width:4px;}.cls-1,.cls-2,.cls-3,.cls-4{stroke-miterlimit:10;}.cls-1,.cls-3{stroke:#dbd1d0;}.cls-2,.cls-3{fill:#dbd1d0;}.cls-2,.cls-5,.cls-4{stroke:#df9843;}.cls-5{stroke-linecap:round;stroke-linejoin:round;}.cls-5,.cls-4{fill:#df9843;stroke-width:4.3px;}</style></defs><g id="Kontur"><path class="cls-3" d="M49.57,60.18c-10.82,35.76-16.96,97.87-16.96,97.87,0,0-32.68-1.87-30.51,23.65,2.18,25.52,22.82,35.51,22.82,35.51,0,0-7.44,158.16,8.74,190.05,0,0,30.8,64.87,217.16,61.9,186.35-2.96,220.39-62.17,220.39-62.17,16.17-31.9,8.73-190.06,8.73-190.06,0,0,20.65-9.99,22.82-35.51,2.18-25.52-30.5-23.65-30.5-23.65,0,0-6.46-61.41-16.87-97.55"/><path class="cls-1" d="M429.33,354.49c0,13.35-10.82,24.17-24.16,24.17s-24.17-10.82-24.17-24.17,10.82-24.16,24.17-24.16,24.16,10.82,24.16,24.16Z"/><circle class="cls-1" cx="95.89" cy="353.1" r="24.16" transform="translate(-221.6 171.23) rotate(-45)"/><path class="cls-1" d="M429.08,181.13l-174.72,.57h-2.03l-174.72-.57c-9.23-3.03-3.16-30.02,5.27-70.04,8.43-40.02,33.63-37.82,33.63-37.82l136.35-.29h.97l136.35,.29s25.2-2.2,33.63,37.82c8.43,40.02,14.5,67.01,5.27,70.04Z"/><path class="cls-3" d="M124.94,499.15c-8.57,10.3-4.89,12.57-42.8,12.54-36-.03-30.13-30.98-29.98-31.75,0,.22,.76,5.69,72.78,19.21Z"/><path class="cls-3" d="M422.72,511.41c-39.69,.28-34.23-2.23-42.79-12.53,0,0,47.49-5.11,72.77-19.22,0,0,6.47,31.5-29.98,31.75Z"/><path class="cls-1" d="M452.7,479.66c-25.28,14.11-72.77,19.22-72.77,19.22,0,0-60.49,5.7-127.23,6.44-66.74-.74-127.76-6.17-127.76-6.17-50.54-4.13-72.78-19.21-72.78-19.21h0c-29.15-17.21-18.5-72.68-18.5-72.68,0,0,30.8,64.87,217.16,61.9,186.35-2.96,220.39-62.17,220.39-62.17,0,0,10.64,55.46-18.51,72.67Z"/></g><g id="Ebene_4"><path class="cls-1" d="M455.39,60.22H49.7S59.56,3.67,148.67,3.38c89.11-.29,211.6,0,211.6,0,0,0,78.25,2.38,94.52,54.78,.02,.05,.03,.11,.05,.17,.13,.44,.26,.89,.39,1.34,.06,.18,.11,.37,.16,.55Z"/></g><g id="Ebene_3"><path class="cls-4" d="M252.33,210.89c-43.27,0-78.35,35.08-78.35,78.35,0,14.31,3.83,27.72,10.53,39.26,.01,.02,.02,.03,.03,.05,1.33,2.28,2.77,4.49,4.32,6.62,14.23,19.65,37.36,32.42,63.47,32.42,28.27,0,53.05-14.98,66.83-37.43,7.31-11.91,11.52-25.92,11.52-40.92,0-43.27-35.08-78.35-78.35-78.35Zm.37,40.06c22.43,0,40.62,18.18,40.62,40.62s-18.19,40.62-40.62,40.62-40.62-18.19-40.62-40.62,18.18-40.62,40.62-40.62Z"/><circle class="cls-2" cx="252.7" cy="291.57" r="40.62"/><path class="cls-5" d="M184.54,328.55c1.47,2.22,2.91,4.42,4.32,6.62,43.36,67.35,62.47,123.03,62.47,123.03,0,0,21.55-57.75,67.99-128.06l-66.99,6.49-67.79-8.08Z"/></g></svg>